<?xml version="1.0" standalone="no"?>
<!DOCTYPE svg PUBLIC "-//W3C//DTD SVG 20010904//EN"
 "http://www.w3.org/TR/2001/REC-SVG-20010904/DTD/svg10.dtd">
<svg version="1.0" xmlns="http://www.w3.org/2000/svg"
 width="3184.000000pt" height="3184.000000pt" viewBox="0 0 3184.000000 3184.000000"
 preserveAspectRatio="xMidYMid meet">
<metadata>
Created by potrace 1.14, written by Peter Selinger 2001-2017
</metadata>
<g transform="translate(0.000000,3184.000000) scale(0.100000,-0.100000)"
fill="#000000" stroke="none">
<path d="M0 19414 l0 -12425 58 44 c31 24 2667 2041 5857 4482 3190 2440 5803
4440 5807 4444 4 4 -481 2009 -1078 4455 l-1086 4449 21 44 21 43 4113 0 4112
0 470 -1783 469 -1783 2081 1576 c1144 867 2203 1669 2354 1783 l273 207 4184
0 4184 0 0 3445 0 3445 -15920 0 -15920 0 0 -12426z"/>
<path d="M31830 24912 c0 -5 -2632 -2029 -5850 -4498 -3217 -2469 -5849 -4495
-5850 -4502 0 -8 486 -2027 1080 -4487 594 -2461 1080 -4478 1080 -4483 0 -5
-15 -16 -32 -26 -31 -16 -292 -17 -4143 -14 l-4109 3 -456 1787 c-250 983
-458 1790 -462 1793 -4 4 -1075 -801 -2380 -1789 l-2373 -1795 -4153 -1 -4153
0 -14 32 c-12 29 -14 -441 -15 -3449 l0 -3483 15920 0 15920 0 0 12460 c0
6853 -2 12460 -5 12460 -3 0 -5 -4 -5 -8z"/>
</g>
</svg>
